<?xml version="1.0" encoding="utf-8"?>
<!-- Generator: Adobe Illustrator 20.1.0, SVG Export Plug-In . SVG Version: 6.00 Build 0)  -->
<svg version="1.1" id="圖層_1" xmlns="http://www.w3.org/2000/svg" xmlns:xlink="http://www.w3.org/1999/xlink" x="0px" y="0px"
	 viewBox="0 0 148 74" style="enable-background:new 0 0 148 74;" xml:space="preserve">
<style type="text/css">
	.st0{fill:#FFFFFF;}
	.st1{fill:#E8213E;stroke:#FFFFFF;stroke-width:0.1468;stroke-miterlimit:10;}
	.st2{fill:#E8213E;}
	.st3{fill:#0E5FAA;}
</style>
<g>
	<g>
		<path class="st0" d="M135.3,42c-0.3-0.4-0.6-0.6-1-0.6h-0.8c0-0.1-0.1-0.3-0.1-0.4c-0.2-0.4-0.6-0.6-1-0.6l-1.7-0.2h-0.1
			c-0.5,0-0.9,0.3-1.1,0.7c-0.2,0.3-0.4,0.6-0.6,1c0-0.2,0-0.4-0.1-0.6c-0.1-0.6-0.6-1.1-1.3-1.1c-0.1,0-0.1,0-0.2,0l-1.9,0.2
			c-0.4,0.1-0.6,0.2-0.8,0.5c-0.2,0.3-0.3,0.6-0.3,0.9H124c-0.4-0.5-0.8-0.9-1.2-1.3c-0.3-0.2-0.6-0.4-0.8-0.4
			c-0.2,0-0.5,0.1-0.6,0.2l-1.7,0.9c-0.1,0.1-0.2,0.2-0.3,0.2c0-0.1-0.1-0.2-0.1-0.3c-0.3-0.4-0.6-0.6-1-0.6h-3.6
			c-0.2-0.4-0.6-0.6-1.1-0.6c0,0,0,0-0.1,0l-2.1,0.1c-0.4,0-0.7,0.2-1,0.6h-3.1c-0.2,0-0.4,0-0.6,0.1c-0.1-0.1-0.1-0.1-0.2-0.2
			c-0.2-0.2-0.5-0.2-0.7-0.2s-0.5,0.1-0.6,0.2l-1.7,1c-0.2,0.1-0.4,0.3-0.5,0.5c0-0.2-0.1-0.3-0.2-0.5c-0.3-0.4-0.6-0.6-1-0.6h-4.2
			c0-0.1-0.1-0.3-0.2-0.4c-0.3-0.4-0.6-0.6-1-0.6h-2c-0.6,0-1,0.3-1.2,0.7L93,41h-4.9c-0.6,0-1,0.3-1.2,0.8l-0.4,1.7
			c-0.2,0.4-0.1,0.8,0.1,1.2c0.1,0.2,0.3,0.3,0.5,0.4l-1.8,4.5c-0.1,0.2-0.1,0.5-0.1,0.6c-0.4,0.1-0.7,0.2-1.2,0.3
			c-0.6,0.2-1.1,0.8-0.9,1.5l0.3,1.6c0.1,0.4,0.3,0.6,0.6,0.8c0.2,0.1,0.5,0.2,0.6,0.2s0.3,0,0.4-0.1c1.2-0.4,2.4-0.8,3.4-1.4
			l-0.1,0.1c-0.2,0.4-0.1,0.8,0.1,1.2c0.3,0.4,0.6,0.6,1,0.6h2c0.6,0,1-0.3,1.2-0.8l0.6-1.6c0.7,0.7,1.8,1.3,3.1,1.7
			c0.1,0.1,0.3,0.1,0.5,0.1c0.4,0,0.6-0.1,0.9-0.4l1-1c0.1,0.4,0.4,0.6,0.7,0.8l1.6,0.6c0.2,0.1,0.3,0.1,0.5,0.1s0.5-0.1,0.6-0.2
			l0.4,0.3c0.2,0.2,0.5,0.3,0.7,0.3s0.5-0.1,0.6-0.2c0.1,0,0.3,0.1,0.4,0.1h1c0.3,0,0.6,0,0.9-0.2c0.2,0.2,0.5,0.3,0.7,0.3
			s0.3,0,0.5-0.1c0.5-0.2,1-0.5,1.4-0.6c0.1,0,0.2,0.1,0.3,0.1l0.3,0.3c0.3,0.3,0.6,0.4,0.9,0.4s0.6-0.1,0.8-0.3
			c0.1-0.1,0.3-0.2,0.4-0.3c0.3,0.3,0.7,0.6,1.5,0.6c1.1,0,1.8-0.8,2.5-1.7l0.7,1.1c0.3,0.4,0.6,0.6,1,0.6c0.2,0,0.5-0.1,0.6-0.2
			c0.5-0.3,0.8-0.6,1.2-0.8c0.6,0.4,1.5,0.6,2.3,0.6c1.2,0.1,2.9,0.2,5,0.2c1.2,0,2.4,0,3.4-0.1c0.4,0,0.8-0.2,1-0.6l1-1.7
			c0.3-0.4,0.3-0.9,0-1.3c-0.2-0.3-0.5-0.6-0.8-0.6L131,50h0.6c0.6,0,1-0.3,1.2-0.7l0.6-1.4c0.2-0.4,0.1-0.8-0.1-1.2
			c0,0,0-0.1-0.1-0.1v-0.1l0.6-1.2c0,0,0,0,0-0.1c0.5-0.1,0.8-0.4,1-0.7l0.6-1.5C135.5,42.7,135.5,42.3,135.3,42z M102,47.5
			c-0.6,1.4-1.5,2.6-2.4,3.8c-0.1-0.4-0.4-0.6-0.7-0.7l0,0l2.2-5.3h0.4c0.1,0,0.3,0,0.4-0.1c-0.1,0.2-0.2,0.4-0.2,0.6
			c-0.1,0.4,0.1,0.7,0.4,1c0.2,0.2,0.3,0.3,0.5,0.5C102.2,47.2,102.1,47.4,102,47.5z M102.4,44.5c0-0.1,0.1-0.1,0.1-0.2l0.6-1.3
			c0.1,0.3,0.2,0.5,0.4,0.6c0.1,0,0.1,0.1,0.2,0.2L102.4,44.5z M117.2,48.1c-0.4,0.4-0.5,0.9-0.3,1.4c0.1,0.3,0.3,0.5,0.5,0.6
			c-0.5,0.4-0.9,0.7-1.5,1.1c-0.1-0.3-0.3-0.6-0.5-0.6l-0.1-0.1c0.3-0.6,0.5-1.1,0.7-1.7c0.3-0.1,0.6-0.4,0.6-0.6l0.9-2.3l0,0l0,0
			c-0.2,0.4-0.1,0.8,0.1,1.2c0.1,0.1,0.2,0.2,0.3,0.3C117.8,47.6,117.5,47.9,117.2,48.1z"/>
		<path class="st0" d="M143.6,19.2c-0.7-0.6-1.9-1-3.6-1c-1.4,0-2.7,0.3-3.7,0.7c-0.2-0.2-0.4-0.4-0.6-0.5c-0.3-0.1-0.5-0.2-0.8-0.2
			c-0.3-0.1-0.6-0.1-0.8-0.1c-0.6,0-1.2,0.1-1.7,0.2c-0.2,0-0.3,0.1-0.5,0.1c-0.2-0.1-0.4-0.1-0.6-0.1h-2.9c-0.4,0-0.6,0.1-0.9,0.4
			c-0.3-0.2-0.6-0.4-0.9-0.4h-3.5c-0.5,0-0.9,0.2-1.2,0.6c-0.3-0.4-0.7-0.6-1.2-0.6h-3.5c-0.6,0-1.1,0.4-1.4,0.8l-0.5,0.9
			c-0.6-1.3-2.1-1.9-4.4-1.9c-1.7,0-3,0.4-4.3,1c0-0.1-0.1-0.2-0.1-0.2c-0.3-0.4-0.6-0.6-1.1-0.6l0.4-0.7c0.2-0.5,0.2-1-0.1-1.5
			c-0.3-0.5-0.7-0.6-1.3-0.6h-3.6c-0.6,0-1.1,0.4-1.4,0.8l-0.9,1.9h-0.9c-0.6,0-1.1,0.4-1.4,0.9l-0.6,1.2c-0.2,0.5-0.2,1,0.1,1.5
			c0.2,0.3,0.5,0.6,0.8,0.6l-1.7,3.8c-0.9,1.9,0,3,0.5,3.4c0.7,0.6,1.7,0.9,3.3,0.9h2c0.6,0,1.1-0.4,1.4-0.9l0.4-0.8
			c0.7,1.2,2.1,1.7,4.1,1.7c1.9,0,3.6-0.5,4.9-1.4c0.3-0.2,0.6-0.4,0.8-0.6c0.1,0.5,0.4,0.7,0.6,0.9c0.6,0.7,1.7,1.1,3.4,1.1
			c0.6,0,1.3-0.1,1.9-0.2c0.2,0,0.4-0.1,0.5-0.1c0.2,0.1,0.5,0.2,0.6,0.2h2.9c0.4,0,0.6-0.1,0.9-0.4c0.3,0.2,0.6,0.4,0.9,0.4h3.5
			c0.6,0,1.1-0.4,1.4-0.8l3-6.5c0.2,0,0.5,0,0.7,0s0.4,0,0.6,0c0,0.3,0,0.5,0.1,0.7c0.1,0.5,0.3,0.9,0.6,1.4h-1.2
			c-0.6,0-1.1,0.4-1.4,0.8c-0.9,2,0.1,3.2,0.6,3.6c0.8,0.6,1.9,0.9,3.7,0.9c1.5,0,2.8-0.3,3.9-0.8c1.2-0.6,2.1-1.5,2.7-2.6
			c0.6-1.1,0.4-2,0.1-2.7c-0.2-0.4-0.4-0.7-0.7-1.1h1.4c0.6,0,1.1-0.4,1.4-0.8C145,20.7,144,19.5,143.6,19.2z M90.4,30.6L99.8,9
			c0.2-0.5,0.3-0.9,0.3-1.5c0-0.7-0.2-1.4-0.6-2c-0.1-0.1-0.2-0.3-0.3-0.4c-0.4-0.3-0.7-0.4-1.2-0.4H86.5c-0.6,0-1.1,0.4-1.4,0.9
			l-3,7.1c-0.3-0.5-0.7-0.6-1.3-0.6h-8.9c-0.4,0-0.6,0.1-0.9,0.3c-0.4-0.1-0.8-0.2-1.3-0.3c-0.8-0.1-1.8-0.2-2.9-0.2
			c-2,0-4,0.4-5.7,1c0.1-0.2,0.2-0.4,0.3-0.6l1.4-3.1c0.2-0.5,0.4-1,0.4-1.5c0-0.7-0.2-1.4-0.6-2c-0.1-0.1-0.2-0.3-0.3-0.4
			c-0.2-0.5-0.6-0.6-0.9-0.6H49.7c-3.6,0-6.4,0.3-8.6,0.8c-3.3-1.2-7-1.9-10.8-1.9C15.5,3.6,3.5,13.6,3.5,26
			c0,8.3,5.3,15.5,13.3,19.3c3.6,1.7,7.7,2.9,12.1,3c0.5,0,0.9,0,1.4,0c5.4,0,10.4-1.4,14.6-3.7c0.4,0.4,0.8,0.6,1.4,0.8
			c1.4,0.5,3,0.7,4.8,1c1.7,0.2,3.5,0.3,5.2,0.3c4.3,0,8.2-0.7,11.4-2c3.7-1.6,6.2-3.9,7.5-6.9l0.2-0.5c0.1,0.1,0.1,0.1,0.2,0.2
			c2.1,1.8,5.3,2.7,10,2.7h51.9c1.5,0,2.8-0.8,3.3-2.2l1.4-3.2c0.5-1.1,0.4-2.4-0.3-3.4c-0.1-0.2-0.3-0.4-0.3-0.5
			c-0.3-0.4-0.7-0.6-1.1-0.6L90.4,30.6z"/>
		<g>
			<path class="st1" d="M86.5,50l2.2-5.4h4.6l0.3-0.6h-5.8l0.6-1.5h5.8l0.4-0.9h2l-0.4,0.9h5.8l-0.6,1.5h-5.8l-0.3,0.6h4.6L97.7,50
				h-2.6c0.6,0.7,1.7,1.3,3.2,1.7l-1.6,1.6c-2-0.7-3.3-1.8-3.8-3.3l-1.6,3.8h-2L91,50c-1.7,1.4-3.8,2.5-6.4,3.3l-0.3-1.6
				c1.9-0.5,3.5-1,4.6-1.7H86.5 M91.7,48.7l0.3-0.8h-2.7l-0.4,0.8H91.7 M92.4,46.7l0.3-0.7H90l-0.3,0.7H92.4 M96.4,48.7l0.3-0.8
				h-2.8l-0.3,0.8H96.4 M97.2,46.7l0.3-0.7h-2.8l-0.3,0.7H97.2z"/>
			<path class="st1" d="M104.6,48.3c-0.2,0.6-0.6,1.4-1.4,2.5c-0.6,1.1-1.3,2-1.8,2.7l-1.6-0.6c1.3-1.4,2.3-2.9,3.2-4.7L104.6,48.3
				 M106.4,52.7c-0.3,0.6-0.6,1-1.2,1h-1l0.3-1.1h0.5c0,0,0,0,0.1,0c0.2,0,0.3-0.1,0.4-0.3l0.2-0.4h-0.9c-0.3,0.6-0.7,1.2-1.4,1.8
				l-1-0.7c0.7-0.6,1.4-1.6,1.9-2.8l0.9-2.3h3.3L106.4,52.7 M104.5,44.7c0.6,0.4,1.1,0.8,1.4,1.3l-1.9,1.3c-0.3-0.5-0.6-1-1.2-1.6
				L104.5,44.7 M105.5,44.4c-0.4-0.6-0.7-1.1-1.2-1.5l1.7-1c0.4,0.3,0.7,0.6,1.1,1l0.3-0.7h4.3l-0.2-0.6l2.1-0.1l0.2,0.6h4.5
				l-0.5,1.2h-8.2l-0.1,0.2c-0.1,0.3,0,0.4,0.3,0.4h6.9l-0.5,1.1h-7.5c-1.2,0-1.7-0.4-1.3-1.1l0.2-0.6H107L105.5,44.4 M104.9,51.2
				h0.8l0.3-0.6h-0.8L104.9,51.2 M105.6,47.6l0.9-2.3h10l-0.9,2.3H105.6 M105.6,49.6h0.8l0.3-0.6h-0.8L105.6,49.6 M106.8,51.6
				c0.6-0.7,1-1.4,1.4-2.1h-0.4l0.5-1.1h0.6l0.4-0.7l1.2,0.1l-0.4,0.6h1.5c-0.4,0.8-0.6,1.4-0.7,1.6l0.4-0.3l0.3,0.4l0.4-1h-0.4
				l0.5-1.2h2.9c-0.5,0.9-0.8,1.9-1.3,2.9c-0.2,0.6-0.4,0.8-0.4,1c-0.1,0.3,0,0.4,0,0.4c0.1,0,0.4-0.4,0.6-1.2l0.6,0.5
				c-0.7,1.5-1.4,2.2-2,2.2s-0.8-0.4-0.6-1.2l-0.7,0.5l-0.1-0.6c-0.4,0.5-0.7,0.9-1.2,1.3l-0.7-0.8c0.6-0.5,1.2-1,1.6-1.6l-0.4-0.6
				c-0.2,0.4-0.4,0.7-0.7,1.1l0.4,0.2l-1,1l-0.5-0.4c-0.6,0.4-1.2,0.7-1.9,1l-0.4-0.9c0.6-0.2,1-0.4,1.4-0.6
				c-0.1-0.1-0.3-0.2-0.5-0.3C107.2,51.8,107,51.7,106.8,51.6 M114.3,46.2H108l-0.2,0.5h6.3L114.3,46.2 M108.9,51.4
				c0.5-0.5,0.8-1.1,1.1-1.8h-0.5c-0.4,0.6-0.6,1.1-1.1,1.7L108.9,51.4 M112.4,51.6c0.1-0.3,0.2-0.6,0.4-1c0-0.1,0.1-0.2,0.1-0.3
				c0.2-0.5,0.4-0.8,0.5-1.2H113c-0.1,0.2-0.2,0.4-0.3,0.6c-0.1,0.3-0.3,0.7-0.6,1.3L112.4,51.6z"/>
			<path class="st1" d="M119.4,44.8h3.9c-0.7,1.1-1.5,2-2.2,2.9h1.5c-0.7,1.4-1.6,2.6-2.6,3.6c-0.1,0.1,0.3,0.3,1.1,0.5
				c0.7,0.2,1.8,0.3,3.3,0.3c1.7,0,3.8-0.1,6.3-0.2l-1,1.7c-1,0-2.1,0.1-3.3,0.1c-2.1,0-3.8-0.1-4.9-0.2c-1.1-0.1-1.9-0.5-2.6-0.9
				c-0.5,0.5-1.1,0.9-1.7,1.4l-0.8-1.3c1.7-0.9,2.9-2.1,3.8-3.5h-1.8c0.8-0.9,1.7-1.8,2.3-2.8H119L119.4,44.8 M122,41.5
				c0.6,0.6,1.1,1.2,1.7,1.8l-1.9,1.1c-0.5-0.8-0.9-1.6-1.4-2L122,41.5 M130.5,41.5l1.7,0.2c-0.2,0.3-0.4,0.6-0.6,1h2.7l-0.6,1.5
				h-3.1c-0.2,0.3-0.5,0.6-0.6,0.8h2.8l-0.6,1.2l-1.3,1.4h1.4l-0.6,1.4H130l-0.6,1.6c-0.4,0.8-0.9,1.2-1.7,1.2h-1.5l0.3-1.5
				c0.4,0,0.6,0,0.8,0c0.3,0,0.5-0.2,0.6-0.5l0.4-0.9h-1.8c-0.6,1.3-1,2.1-1.3,2.4c-0.3,0.3-0.9,0.4-1.8,0.4c-0.2,0-0.4,0-0.5,0
				l0.4-1.4c0.2,0,0.4,0.1,0.6,0.1c0.3,0,0.5-0.3,0.7-0.9c0.3-0.6,0.6-1.2,0.7-1.7l0.3-0.7h-0.8c-0.9,2.1-1.9,3.8-3.1,4.9l-1.2-0.9
				c1.2-1.1,2.2-2.7,2.9-4.7l0.6-1.6h-1l0.6-1.5h1.7c0.1-0.4,0-0.8-0.1-1.4l1.9-0.2c0.1,0.6,0.1,1.1,0,1.7h1.5l-0.4,0.9
				C129.5,43.3,130.1,42.3,130.5,41.5 M128.1,44.6h-2l-0.4,1h2.4l-0.7,1.9h1.8l1.1-1.2h-1.8l0.3-0.6l-1.1-0.6L128.1,44.6z"/>
		</g>
		<g>
			<path class="st2" d="M42.7,23.3c1.2,0,4,0,6.4,0c0.1-0.2,0.2-0.4,0.3-0.6c0.1-0.3,0.3-0.6,0.4-0.8c-2.3,0-6.1,0-7.7,0
				c-0.9,2.2-2.6,6-2.6,6c-0.2,0.5-0.3,0.7-0.4,1c0.2,0.1,0.6,0.1,1.1,0.2C40.8,27.7,42.2,24.7,42.7,23.3z"/>
			<path class="st2" d="M61,6.8L59.6,10c-0.5,0.9-1.4,1.6-2.4,1.6h-6.8c-2.2,0-3.1,0.4-3.4,0.6c-0.3,0.2-0.6,0.5-0.6,0.7h11.9
				c0.8,0,1.7-0.5,1.9-1.3l1.3-3.1c0.1-0.3,0.2-0.6,0.2-0.9c0-0.4-0.1-0.8-0.4-1.2c-0.1-0.1-0.1-0.2-0.2-0.2
				C61.1,6.5,61.1,6.6,61,6.8z"/>
			<path class="st2" d="M98,6.8l-9.6,21.9c0,0.1-0.1,0.1-0.1,0.2c0.3,0,0.6,0.1,1.2,0.1l9-20.6c0.1-0.3,0.2-0.6,0.2-0.8
				c0-0.4-0.1-0.8-0.4-1.2c-0.1-0.1-0.1-0.2-0.2-0.2C98.1,6.4,98.1,6.5,98,6.8z"/>
			<path class="st2" d="M140.9,32.2c-0.1-0.1-0.1-0.2-0.2-0.2c0,0.3-0.1,0.5-0.2,0.7l-1.4,3.2c-0.4,0.9-1.4,1.6-2.4,1.6h-52
				c-4.2,0-7.3-0.7-9.2-2.3c0.4,0.6,0.7,1,1.1,1.3c1.8,1.6,4.8,2.3,9,2.3h52c0.8,0,1.7-0.6,1.9-1.3l1.4-3.2
				C141.3,33.6,141.3,32.8,140.9,32.2z"/>
			<path class="st2" d="M44.1,41.5c-3.8,2.3-8.5,3.7-13.6,3.7l0,0c-0.4,0-0.7,0-1.1,0c0.9-1.1,1.7-3.6,2.1-6.8
				c1.6,0.4,3.4,0.6,5.6,0.6h7.2c0-0.1,0.1-0.1,0.1-0.2l1-1.3h-9.1c-4.7,0-7.9-0.8-9.9-2.4c-0.1-0.1-0.1-0.1-0.2-0.2
				c0.4,0.7,0.9,1.3,1.4,1.7c0.8,0.7,1.9,1.2,3.3,1.7c-0.6,4.4-1.7,6.9-2.4,6.9c-1,0-2.3-4-2.9-10.9c-0.4-0.4-0.6-0.8-0.9-1.4h-11
				c-0.7-2.1-1.2-4.4-1.2-6.8c0-9.4,6.3-17.2,14.7-18.9c-1.7,2.7-2.7,10.8-2.7,18.9c0,0.6,0,1.1,0,1.6c0.1-0.4,0.3-0.8,0.5-1.2
				c0,0,0.1-0.2,0.2-0.5c0-11.7,1.8-19,3.2-19c0.7,0,1.7,2.2,2.3,6.2c0.3-0.6,0.4-0.9,0.4-0.9c0-0.1,0.1-0.2,0.1-0.3
				c-0.5-2.4-1.1-4.2-1.8-5.2c0.1,0,0.2,0,0.3,0c0.2,0,0.4,0,0.6,0c1.5,0,2.9,0.1,4.2,0.4c0.7-0.6,1.3-1.1,1.9-1.5
				c-1.9-0.4-4-0.6-6-0.6C16.3,5.1,5,14.5,5,26s11.3,20.9,25.2,20.9c5.7,0,10.9-1.6,15.2-4.2C44.8,42.4,44.4,42.1,44.1,41.5z
				 M6.7,26c0-8.5,6.8-15.7,16.2-18.2C16.3,10.9,11.7,17.9,11.7,26c0,2.4,0.4,4.7,1.1,6.8H8.2C7.3,30.7,6.7,28.4,6.7,26z M8.6,33.6
				h4.5c1.8,4.8,5.4,8.6,9.9,10.7C16.6,42.6,11.3,38.7,8.6,33.6z M13.9,33.6h10.9c0.4,5.2,1.2,9.5,2.4,11.3
				C21.2,43.6,16.2,39.4,13.9,33.6z"/>
			<path class="st2" d="M74.3,33.7l-0.9,1.9l0,0c-1.2,2.8-3.6,5-7,6.4c-3.1,1.3-6.8,2-11,2c-1.7,0-3.4-0.1-5.1-0.3
				c-1.7-0.2-3.3-0.6-4.6-0.9c-0.1,0-0.2-0.1-0.3-0.1c0.2,0.6,0.7,1.2,1.4,1.4c1.3,0.4,2.9,0.7,4.5,0.9c1.7,0.2,3.3,0.3,5.1,0.3
				c4.1,0,7.8-0.6,10.9-1.9c3.3-1.4,5.5-3.5,6.7-6.2c0,0,0.5-1,1.1-2.5C74.8,34.4,74.5,34.1,74.3,33.7z"/>
		</g>
		<path class="st3" d="M47.7,35.3H36.8c-4,0-6.8-0.6-8.3-1.8s-1.7-3.1-0.6-5.6l6.2-14.2c1.3-3,3-5,5.2-6S45,6.2,49.8,6.2h9.4
			l-1.4,3.2H51c-2.1,0-3.7,0.3-4.7,0.8c-1,0.6-1.8,1.6-2.5,2.9l-1.1,2.6H54l-1.7,3.9H41l-3.3,7.5c-0.7,1.7-0.8,2.9-0.2,3.8
			c0.6,0.7,2.1,1.1,4.5,1.1h7.1L47.7,35.3z M138.7,32H90.2c-1.7,0-2.9-0.3-3.6-0.7c-0.7-0.6-0.7-1.6,0-3.1l9.5-22h-9.5l-9.7,22.1
			c-1,2.2-0.7,4,0.6,5.2c1.4,1.2,4,1.8,7.6,1.8h52L138.7,32z M71.5,35l9.4-21.5H72l-0.3,0.6c-0.6-0.3-1.4-0.6-2.1-0.6
			c-0.7-0.1-1.7-0.2-2.7-0.2c-2.1,0-4.1,0.4-6.1,1.2c-1.8,0.8-3.4,1.9-4.7,3.4c-0.6,0.6-1.2,1.6-1.9,2.8s-1.3,2.4-1.8,3.5
			s-0.8,2-1.2,2.9c-0.3,0.9-0.6,1.7-0.6,2.5c-0.4,1.9,0,3.4,1,4.2c1,0.9,2.9,1.3,5.3,1.3c1.5,0,2.9-0.1,4-0.4
			c1.2-0.3,2.1-0.6,2.7-0.9c-0.1,0.2-0.1,0.5-0.2,0.6c-0.1,0.2-0.1,0.4-0.2,0.5c-0.5,1.2-1.3,2-2.4,2.7c-1.1,0.6-2.6,0.9-4.3,0.9
			c-1.2,0-2.5-0.1-3.8-0.2c-1.4-0.2-2.4-0.4-3.2-0.6l-2.4,3c1.2,0.4,2.6,0.6,4.1,0.8c1.6,0.2,3.1,0.3,4.8,0.3c3.9,0,7.2-0.6,10-1.7
			C68.7,38.8,70.6,37.2,71.5,35 M62.8,32c-0.5,0.1-0.9,0.1-1.6,0.1c-0.8,0-1.4-0.2-1.7-0.5s-0.4-0.8-0.2-1.5s0.5-1.6,0.9-2.7
			c0.4-1,0.8-2.2,1.4-3.4c0.4-0.7,0.7-1.7,1.2-2.6c0.5-1,1-1.9,1.5-2.8c0.5-0.8,1-1.4,1.6-1.7c0.6-0.3,1.4-0.5,2.3-0.5
			c0.4,0,0.7,0,1.2,0.1s0.7,0.2,0.9,0.3L64,31.6C63.6,31.8,63.1,31.9,62.8,32z M104.7,20.9l0.6-1.2h-2.2l1.3-2.9h-3.6l-1.3,2.9h-1.8
			l-0.6,1.2h1.8l-2.7,5.9c-0.4,0.7-0.3,1.3,0.1,1.7c0.5,0.4,1.2,0.6,2.3,0.6h2l0.6-1.2c-0.7,0-1.2-0.1-1.4-0.2
			c-0.2-0.2-0.2-0.5,0-0.8l2.7-5.8L104.7,20.9 M113.6,24.3c0.7-1.6,0.9-2.8,0.6-3.6c-0.4-0.7-1.4-1.2-3.1-1.2c-1.6,0-2.9,0.4-4,1.1
			s-2,1.9-2.8,3.6c-0.7,1.6-0.8,2.8-0.5,3.6c0.5,0.8,1.4,1.2,2.9,1.2c1.6,0,2.9-0.4,4-1.1C111.8,27.2,112.7,26,113.6,24.3
			 M109.9,24.3c-0.6,1.4-1.1,2.3-1.5,2.7c-0.3,0.4-0.6,0.6-1.1,0.6s-0.6-0.2-0.6-0.6s0.4-1.3,1.1-2.7c0.6-1.5,1.2-2.4,1.5-2.8
			s0.6-0.6,1.1-0.6s0.6,0.2,0.6,0.6C110.9,21.9,110.5,22.8,109.9,24.3 M122.3,28.9l4.2-9.3H123l-3.5,7.7c-0.2,0.1-0.4,0.1-0.6,0.1
			s-0.5,0-0.6,0c-0.4,0-0.6-0.1-0.7-0.2s-0.2-0.4,0-0.6l3.2-7h-3.5l-3.2,6.9c-0.4,0.8-0.4,1.5,0,1.8c0.4,0.4,1.2,0.6,2.4,0.6
			c0.6,0,1.1-0.1,1.7-0.2s1-0.3,1.4-0.4v0.5L122.3,28.9 M134.4,21.7l0.9-1.9c-0.2-0.1-0.4-0.1-0.6-0.1s-0.4-0.1-0.6-0.1
			c-0.6,0-1,0-1.5,0.1s-0.9,0.2-1.3,0.4v-0.4h-2.9l-4.2,9.3h3.5l3.3-7.3c0.2-0.1,0.5-0.1,0.7-0.2c0.4,0,0.6,0,1,0
			c0.3,0,0.6,0,0.8,0.1C133.9,21.5,134.2,21.6,134.4,21.7 M141,25.1c-0.2-0.4-0.6-0.9-1.4-1.5c-0.8-0.6-1.3-1.1-1.4-1.3
			c-0.1-0.3-0.1-0.5,0-0.7s0.3-0.4,0.5-0.5c0.3-0.1,0.5-0.2,0.7-0.2c0.4,0,0.6,0.1,0.6,0.3c0.1,0.2,0.1,0.4,0,0.6h2.9
			c0.4-0.7,0.3-1.4-0.2-1.7c-0.5-0.4-1.4-0.6-2.7-0.6c-1.2,0-2.2,0.2-3.1,0.6c-0.9,0.4-1.6,0.9-1.8,1.7c-0.3,0.6-0.4,1.2-0.4,1.7
			c0.1,0.5,0.6,1,1.3,1.6c0.6,0.5,1.1,0.8,1.3,1.1c0.3,0.3,0.4,0.5,0.3,0.7c-0.1,0.3-0.3,0.5-0.6,0.6s-0.6,0.2-0.9,0.2
			c-0.4,0-0.6-0.1-0.7-0.2c-0.1-0.2-0.1-0.4,0.1-0.7h-2.6c-0.4,0.8-0.3,1.5,0.2,1.8s1.4,0.6,2.8,0.6c1.3,0,2.3-0.2,3.2-0.6
			c0.9-0.5,1.6-1,1.9-1.8C141.2,26.1,141.2,25.6,141,25.1z"/>
	</g>
	<g>
		<path d="M16.4,64h-2.1c0.6,0.5,1.5,0.9,2.3,1.1c-0.2,0.1-0.4,0.3-0.5,0.5c-0.2-0.1-0.5-0.2-0.6-0.3v2.3h-0.6v-0.2H12v0.2h-0.6
			v-2.2c-0.3,0.1-0.5,0.2-0.7,0.3c-0.1-0.1-0.3-0.4-0.5-0.5c0.8-0.3,1.7-0.7,2.3-1.2h-2.1v-0.5H13V63c-0.6,0.1-1.4,0.1-2,0.1
			c0-0.2-0.1-0.4-0.2-0.5c1.6-0.1,3.3-0.2,4.4-0.5l0.5,0.5h-0.1h-0.1c-0.6,0.1-1.2,0.2-1.9,0.3v0.6h2.8V64L16.4,64z M13,64.2
			c-0.5,0.5-1,0.8-1.6,1.1h4c-0.6-0.3-1.3-0.7-1.7-1.1v1H13V64.2z M14.8,66.2v-0.5h-2.9v0.5H14.8z M11.9,67h2.9v-0.5h-2.9V67z"/>
		<path d="M17.3,63.9c0.5,0.1,0.9,0.4,1.2,0.6L18.1,65c-0.3-0.2-0.7-0.5-1.2-0.6L17.3,63.9z M23.5,64.5h-1.1
			c0.3,0.5,0.7,0.8,1.2,1.1c-0.2,0.1-0.4,0.3-0.5,0.5c-0.3-0.2-0.6-0.5-0.9-0.7v1.1h-2V67c0,0.2,0.1,0.2,0.5,0.2H22
			c0.4,0,0.4-0.1,0.5-0.6c0.1,0.1,0.4,0.2,0.6,0.2c-0.1,0.6-0.3,0.8-0.9,0.8h-1.5c-0.8,0-1.1-0.2-1.1-0.6v-1h2v-0.5h-1.7v-0.3
			c-0.3,0.4-0.6,0.6-1,0.9c-0.1-0.1-0.2-0.2-0.3-0.3c-0.3,0.6-0.6,1.2-0.9,1.6v0.1v0.1l-0.6-0.4c0.4-0.5,0.8-1.2,1.1-1.8l0.4,0.3
			c0.5-0.3,0.8-0.6,1.1-1.1h-1.1v-0.5h1.2v-0.6h-0.9V63h0.9v-0.7h0.8c0,0.1-0.1,0.1-0.2,0.1V63h1.2v-0.7h0.8c0,0.1-0.1,0.1-0.2,0.1
			V63h1v0.5h-1V64h1.2L23.5,64.5L23.5,64.5z M17.7,62.2c0.4,0.2,0.9,0.4,1.2,0.6l-0.4,0.5c-0.3-0.2-0.7-0.5-1.2-0.6L17.7,62.2z
			 M20.5,64.5c-0.1,0.2-0.2,0.4-0.4,0.6H22c-0.1-0.2-0.3-0.4-0.4-0.6H20.5z M20.5,63.4V64h1.2v-0.6H20.5z"/>
		<path d="M26.5,62.9H26v4.7h-0.6v-1.1c-0.6,0.1-1,0.2-1.4,0.3c0,0.1-0.1,0.1-0.1,0.1l-0.2-0.6c0.1,0,0.3,0,0.5-0.1v-3.3H24v-0.5
			h2.7L26.5,62.9L26.5,62.9z M25.5,63.7V63h-0.6v0.7H25.5z M24.8,64.1v0.7h0.6v-0.7H24.8z M24.8,65.3v0.8l0.6-0.1v-0.7
			C25.4,65.3,24.8,65.3,24.8,65.3z M27.7,64.5c-0.1-0.1-0.1-0.3-0.2-0.4l0.4-0.1c0.2,0.3,0.4,0.6,0.4,0.8L27.9,65
			c0-0.1,0-0.1-0.1-0.2c-0.6,0.1-1,0.1-1.4,0.1L26.3,65l-0.2-0.5h0.4c0.2-0.2,0.3-0.4,0.5-0.6c-0.2-0.2-0.5-0.5-0.7-0.6l0.3-0.3
			c0.1,0,0.1,0.1,0.1,0.1c0.2-0.3,0.4-0.6,0.5-0.8l0.6,0.2c0,0-0.1,0.1-0.2,0.1c-0.1,0.3-0.4,0.6-0.6,0.8c0.1,0.1,0.2,0.2,0.3,0.3
			c0.1-0.2,0.3-0.5,0.4-0.6l0.6,0.2c0,0-0.1,0.1-0.2,0.1c-0.3,0.4-0.6,0.9-0.9,1.3L27.7,64.5z M27.4,66.2v-1.1H28
			c0,0.1-0.1,0.1-0.2,0.1V66c0,0.6-0.1,1.2-1.1,1.7c-0.1-0.1-0.2-0.3-0.4-0.4c0.6-0.2,0.7-0.5,0.8-0.7h-0.5v0.3h-0.5v-1.6H27
			c0,0-0.1,0.1-0.2,0.1v0.8C26.8,66.2,27.4,66.2,27.4,66.2z M29.9,64c0.2,0.3,0.4,0.6,0.5,0.9l-0.5,0.2c0-0.1-0.1-0.2-0.1-0.3
			L28.6,65c0,0,0,0.1-0.1,0.1l-0.2-0.5h0.4c0.2-0.2,0.3-0.4,0.5-0.6c-0.2-0.2-0.5-0.5-0.7-0.6l0.3-0.4c0.1,0,0.1,0.1,0.2,0.1
			c0.2-0.3,0.4-0.6,0.5-0.8l0.6,0.2c0,0-0.1,0.1-0.2,0.1c-0.2,0.3-0.4,0.6-0.6,0.8c0.1,0.1,0.2,0.2,0.3,0.3c0.1-0.2,0.3-0.5,0.4-0.6
			l0.6,0.2c0,0-0.1,0.1-0.2,0.1c-0.3,0.4-0.6,0.9-0.9,1.3c0.2,0,0.4,0,0.6,0c-0.1-0.1-0.1-0.2-0.2-0.3L29.9,64z M29.6,66.2v-0.9h0.6
			c0,0.1-0.1,0.1-0.2,0.1v1.4h-0.5v-0.3H29v1.1h-0.6V65H29c0,0-0.1,0.1-0.2,0.1v1L29.6,66.2L29.6,66.2z"/>
		<path d="M32.2,64.2c-0.4,0.2-0.7,0.5-1.1,0.6c-0.1-0.1-0.3-0.4-0.4-0.5c1.2-0.6,2.4-1.4,2.9-2.1l0.9,0.1c0,0.1-0.1,0.1-0.2,0.1
			c0.6,0.7,1.8,1.6,2.9,1.9c-0.2,0.2-0.3,0.4-0.5,0.5c-0.4-0.2-0.7-0.4-1.1-0.6v0.3h-3.5C32.2,64.6,32.2,64.2,32.2,64.2z M31.8,67.6
			v-2.4h4.3v2.4h-0.6v-0.3h-3v0.3H31.8z M35.5,64.1c-0.6-0.5-1.3-0.9-1.7-1.4c-0.4,0.5-0.9,0.9-1.6,1.4H35.5z M35.5,65.8h-3V67h3
			V65.8z"/>
		<path d="M39.9,64.6c0.2,0.5,0.6,0.8,0.9,1.2c0.4-0.4,0.7-0.7,0.9-1.2l0.8,0.2c0,0-0.1,0.1-0.2,0.1c-0.3,0.6-0.6,0.9-1,1.3
			c0.7,0.5,1.7,0.7,2.8,0.9c-0.2,0.1-0.4,0.4-0.5,0.6c-1.2-0.2-2.1-0.6-2.9-1c-0.7,0.5-1.7,0.8-2.9,1c-0.1-0.1-0.3-0.4-0.4-0.5
			c1.1-0.2,2-0.5,2.7-0.9c-0.5-0.4-0.7-0.8-1-1.4L39.9,64.6z M40.2,63.9c0,0-0.1,0.1-0.2,0.1c-0.5,0.5-1.2,1-1.8,1.4
			c-0.1-0.1-0.4-0.3-0.5-0.4c0.6-0.3,1.4-0.7,1.7-1.3L40.2,63.9z M43.8,62.9v0.6h-6.1v-0.6h2.7v-0.7h0.8c0,0.1-0.1,0.1-0.2,0.1v0.6
			L43.8,62.9L43.8,62.9z M43.4,65.2c-0.4-0.4-1.2-0.9-1.8-1.3l0.6-0.4c0.6,0.4,1.5,0.9,1.8,1.3L43.4,65.2z"/>
		<path d="M50.1,65.2l0.4,0.1c0,0,0,0.1,0,0.2c-0.1,1.3-0.3,1.8-0.5,2s-0.4,0.2-0.9,0.2c-0.1,0-0.3,0-0.5,0c0-0.2-0.1-0.4-0.2-0.5
			c0.3,0,0.6,0,0.7,0s0.2,0,0.3-0.1s0.3-0.5,0.4-1.4h-0.6c-0.4,0.7-0.9,1.6-1.6,1.9c-0.1-0.1-0.4-0.3-0.5-0.4c0.6-0.4,1.1-1,1.4-1.7
			h-0.7c-0.5,0.7-1.3,1.4-2.1,1.8c-0.1-0.1-0.3-0.3-0.5-0.4c0.7-0.4,1.4-0.8,1.8-1.5h-0.8c-0.4,0.3-0.7,0.6-1.1,0.7
			c-0.1-0.1-0.4-0.3-0.5-0.4c0.6-0.3,1.3-0.7,1.7-1.3h-0.9v-2.3H50v2.3h-2.9c0,0-0.1,0.1-0.2,0c-0.1,0.1-0.2,0.3-0.4,0.4h3.3
			L50.1,65.2z M46.1,62.9v0.5h3.2v-0.5H46.1z M46.1,63.9v0.5h3.2v-0.5H46.1z"/>
		<path d="M54.3,65.4h-1.9c0,0.7-0.2,1.6-0.6,2.2c-0.1-0.1-0.4-0.3-0.6-0.4c0.5-0.6,0.6-1.6,0.6-2.2v-1.6h2.6L54.3,65.4L54.3,65.4z
			 M54.5,62.5V63h-3.1v-0.5H54.5z M53.7,64h-1.4v1h1.4V64z M57.8,64.2v0.6h-0.7v2.9h-0.6v-2.9h-1c0,0.9-0.3,2-1.2,2.9
			c-0.1-0.1-0.4-0.3-0.5-0.4c0.9-0.8,1.1-2,1.1-2.9v-1.7l0.5,0.1c0.7-0.2,1.5-0.4,1.9-0.6l0.6,0.5c0,0-0.1,0-0.2,0
			c-0.6,0.2-1.4,0.5-2.1,0.6V64h2.2V64.2z"/>
		<path d="M61.8,66.9h2.8v0.6h-6.2v-0.6h2.8v-1.2H59v-0.6h2.1V64h-2.4v-0.6h3.5c-0.5-0.3-1.4-0.6-2.1-0.8l0.5-0.5
			c0.7,0.2,1.7,0.6,2.2,0.8l-0.5,0.5h2V64h-2.5v1.1h2v0.6h-2.1L61.8,66.9L61.8,66.9z"/>
		<path d="M66.7,64.4c0.2,0.2,0.8,0.8,0.9,1l-0.4,0.5c-0.1-0.2-0.4-0.6-0.6-0.8v2.6H66v-2.6c-0.3,0.6-0.6,1.1-0.8,1.5
			c-0.1-0.2-0.2-0.4-0.4-0.5c0.5-0.5,0.9-1.4,1.1-2.1H65v-0.6h1v-1.2h0.7c0,0.1-0.1,0.1-0.2,0.1v1.1h0.9V64h-0.8v0.4H66.7z M70.9,64
			L70.9,64c0.5,0.1,0.5,0.1,0.5,0.1s0,0.1-0.1,0.1c-0.2,0.9-0.6,1.6-1,2.2c0.4,0.4,0.8,0.6,1.4,0.7c-0.2,0.1-0.4,0.3-0.5,0.5
			c-0.6-0.2-0.9-0.5-1.3-0.8c-0.4,0.4-0.8,0.6-1.3,0.8c-0.1-0.1-0.3-0.4-0.4-0.5c0.5-0.2,0.9-0.5,1.3-0.8c-0.4-0.5-0.6-1-0.9-1.7
			l0.6-0.1c0.2,0.5,0.4,0.9,0.7,1.3c0.4-0.4,0.6-0.9,0.7-1.5h-2c0,1-0.2,2.2-1,3c-0.1-0.1-0.4-0.3-0.6-0.4c0.8-0.9,0.8-2.2,0.8-3.1
			v-1.7h3.5v0.6h-2.9v1h2.4V64H70.9z"/>
		<path d="M75.3,66.8h3v0.6H72v-0.6h2.6v-4.5h0.8c0,0.1-0.1,0.1-0.2,0.1V64h2.6v0.6h-2.6C75.3,64.6,75.3,66.8,75.3,66.8z"/>
		<path d="M85.1,63v0.6h-2.8l0,0h0.1c0,0.1-0.1,0.1-0.2,0.1v0.6h2.2v2c0,0.6-0.3,0.6-1.6,0.6c0-0.2-0.1-0.4-0.2-0.6
			c0.3,0,0.6,0,0.7,0c0.4,0,0.4,0,0.4-0.1v-1.5h-1.6v2.9h-0.6v-2.9H80V67h-0.6v-2.7h2.1v-0.7h-2.8V63h2.8v-0.8l0.8,0.1
			c0,0-0.1,0.1-0.2,0.1V63H85.1L85.1,63z"/>
		<path d="M94.1,63.1c0,0.6-0.2,1.2-0.8,1.6c-0.1-0.1-0.4-0.3-0.5-0.4V67c0,0.6-0.3,0.6-1.2,0.6c0-0.2-0.1-0.4-0.2-0.6
			c0.2,0,0.3,0,0.4,0c0.4,0,0.4,0,0.4-0.1v-1.4h-0.8c-0.1,0.7-0.2,1.5-0.6,2c-0.1-0.1-0.4-0.2-0.6-0.3c0.5-0.8,0.5-2,0.5-2.9v-2.1h2
			v1.9c0.6-0.4,0.7-0.8,0.7-1.2v-0.7h2.3v1.5c0,0.2,0,0.2,0.1,0.2h0.3c0.1,0,0.1-0.1,0.2-0.6c0.1,0.1,0.4,0.2,0.6,0.2
			c-0.1,0.7-0.2,0.9-0.6,0.9h-0.5c-0.5,0-0.6-0.2-0.6-0.6v-0.9h-1C94.1,62.9,94.1,63.1,94.1,63.1z M91.3,64.5c0,0.2,0,0.4,0,0.6h0.8
			v-0.8h-0.8V64.5z M92.1,62.9h-0.8v0.8h0.8V62.9z M95.9,64.8l0.5,0.2l-0.1,0.1c-0.2,0.6-0.6,1.2-1.1,1.6c0.5,0.3,1,0.5,1.6,0.6
			c-0.2,0.1-0.4,0.4-0.5,0.5c-0.6-0.2-1.1-0.4-1.7-0.7c-0.5,0.3-1,0.6-1.7,0.7c-0.1-0.2-0.3-0.4-0.4-0.5c0.6-0.1,1-0.4,1.5-0.6
			c-0.4-0.4-0.6-0.7-0.9-1.1l0.6-0.2H93v-0.6H95.9L95.9,64.8z M93.9,65.2c0.2,0.4,0.5,0.6,0.8,0.9c0.3-0.3,0.6-0.6,0.7-0.9H93.9z"/>
		<path d="M98.8,63.9c0,0-0.1,0.1-0.2,0.1v3.7H98v-2.9c-0.2,0.3-0.4,0.5-0.6,0.7c-0.1-0.1-0.3-0.4-0.4-0.5c0.6-0.6,1.2-1.7,1.6-2.8
			l0.7,0.2c0,0-0.1,0.1-0.2,0.1c-0.2,0.5-0.4,0.9-0.6,1.3L98.8,63.9z M102.3,62.4c0.2,0.8,0.6,1.7,1.4,2c-0.2,0.1-0.4,0.4-0.5,0.5
			c-0.2-0.1-0.3-0.2-0.4-0.4c0,0.1,0,0.1,0,0.2c-0.1,1.8-0.1,2.5-0.3,2.7c-0.1,0.2-0.3,0.2-0.5,0.2c-0.1,0-0.3,0-0.5,0
			c-0.1,0-0.3,0-0.4,0c0-0.2-0.1-0.4-0.2-0.6c0.3,0,0.6,0,0.6,0c0.1,0,0.2,0,0.2-0.1c0.1-0.1,0.2-0.6,0.2-1.9H101
			c-0.1,1-0.5,1.9-1.7,2.6c-0.1-0.1-0.3-0.3-0.4-0.5c1-0.5,1.3-1.3,1.4-2.2h-0.8v-0.3c-0.1,0.1-0.2,0.2-0.4,0.4
			c-0.1-0.1-0.3-0.3-0.4-0.4c0.5-0.5,0.9-1.1,1.1-1.7l0.7,0.2c0,0-0.1,0.1-0.2,0.1c-0.2,0.5-0.6,1-0.9,1.4h2.7h0.2h0.4
			c-0.5-0.5-0.8-1.1-1-1.7h-1.5v-0.5C100.3,62.4,102.3,62.4,102.3,62.4z"/>
		<path d="M105.1,64.5c-0.3,0.3-0.6,0.6-0.8,0.8c-0.1-0.1-0.3-0.5-0.4-0.6c0.6-0.6,1.4-1.6,1.8-2.6l0.7,0.2c0,0.1-0.1,0.1-0.2,0.1
			c-0.2,0.4-0.4,0.8-0.6,1.2l0.3,0.1c0,0-0.1,0.1-0.2,0.1v3.8h-0.6L105.1,64.5L105.1,64.5z M110.4,64.3l-2.1,0.2
			c0.3,1.5,0.7,2.6,1.3,2.6c0.2,0,0.3-0.3,0.3-1.1c0.2,0.1,0.4,0.3,0.6,0.4c-0.1,1-0.4,1.3-0.9,1.3c-1.2,0-1.7-1.7-1.9-3.1l-1.6,0.2
			l-0.1-0.6l1.6-0.2c-0.1-0.6-0.1-1.2-0.1-1.7h0.8c0,0.1-0.1,0.1-0.2,0.1c0,0.6,0,1.1,0.1,1.6l2.1-0.2L110.4,64.3z M109.1,62.3
			c0.4,0.3,0.9,0.6,1.1,0.9l-0.6,0.3c-0.2-0.3-0.6-0.6-1.1-1L109.1,62.3z"/>
		<path d="M112.9,65.3h0.4c0,0,0,0.1,0,0.2c-0.1,1.2-0.2,1.7-0.4,1.9c-0.2,0.1-0.3,0.2-0.8,0.2c-0.1,0-0.3,0-0.4,0
			c0-0.2-0.1-0.4-0.2-0.5c0.3,0,0.6,0,0.6,0c0.1,0,0.2,0,0.3-0.1c0.1-0.1,0.2-0.5,0.3-1.3h-0.8c0,0.1-0.1,0.3-0.1,0.4
			c-0.6-0.1-0.6-0.1-0.6-0.1c0.1-0.3,0.3-0.7,0.4-1.2H111v-0.5h2.7v0.5h-1.5c0,0.2-0.1,0.3-0.1,0.5H112.9L112.9,65.3z M113.3,62.4
			V64h-2v-1.7h2V62.4z M112.6,63.7v-0.8h-0.8v0.8H112.6z M114.3,63.8v1.1c0,0.8-0.1,2-0.7,2.8c-0.1-0.1-0.4-0.3-0.5-0.3
			c0.6-0.7,0.6-1.7,0.6-2.5v-1.5h1.4v-1.2h0.8c0,0.1-0.1,0.1-0.2,0.1v0.3h1.4V63h-1.4v0.4h1.7c0,0.1-0.1,0.7-0.2,1.1l-0.5-0.1
			c0-0.2,0.1-0.4,0.1-0.6C116.8,63.8,114.3,63.8,114.3,63.8z M115.4,65.6c0,0.1-0.1,0.1-0.2,0.1c-0.1,0.7-0.2,1.5-0.9,1.9
			c-0.1-0.1-0.3-0.3-0.4-0.4c0.6-0.4,0.7-1,0.7-1.7L115.4,65.6z M114.4,64.3l0.6-0.1v-0.5h0.7c0,0.1-0.1,0.1-0.2,0.1v0.3l0.7-0.1
			l0.1,0.4l-0.8,0.1v0.2c0,0.1,0,0.2,0.2,0.2h0.6c0.2,0,0.2,0,0.2-0.4c0.1,0.1,0.4,0.1,0.5,0.2c-0.1,0.5-0.2,0.6-0.6,0.6h-0.7
			c-0.7,0-0.7-0.2-0.7-0.6l-0.6,0.1L114.4,64.3z M116.3,66.9c0,0.2,0,0.2,0.2,0.2c0.4,0,0.4,0,0.5-0.2c0-0.1,0-0.3,0-0.5
			c0.1,0.1,0.3,0.2,0.5,0.2c0,0.3,0,0.5-0.1,0.6c-0.1,0.2-0.3,0.3-0.6,0.3h-0.5c-0.6,0-0.6-0.4-0.6-0.6v-1.3h0.7
			c0,0.1-0.1,0.1-0.2,0.1C116.3,65.6,116.3,66.9,116.3,66.9z"/>
		<path d="M119.3,64.7c0.3-0.3,0.6-0.5,1.1-0.5c0.8,0,1.5,0.6,1.5,1.4s-0.6,1.6-1.7,1.6s-1.7-0.7-1.7-1.8c0-0.8,0.4-1.6,0.8-1.9
			c0.6-0.5,1.4-0.6,2.1-0.6v0.6C119.9,63.2,119.4,64,119.3,64.7L119.3,64.7z M121,65.7c0-0.6-0.4-0.9-0.9-0.9s-0.9,0.4-0.9,0.7
			c0,0.6,0.4,1.2,0.9,1.2C120.7,66.7,121,66.3,121,65.7z"/>
		<path d="M123.3,64.8c-0.6-0.2-0.7-0.6-0.7-1c0-0.7,0.6-1.2,1.6-1.2s1.5,0.6,1.5,1.1c0,0.4-0.3,0.7-0.8,1l0,0c0.6,0.2,1,0.6,1,1.1
			c0,0.7-0.7,1.3-1.7,1.3s-1.7-0.6-1.7-1.2C122.3,65.4,122.8,65.1,123.3,64.8L123.3,64.8z M124.9,66c0-0.5-0.4-0.7-0.9-0.9
			c-0.5,0.2-0.7,0.5-0.7,0.8c0,0.5,0.4,0.7,0.8,0.7C124.5,66.7,124.9,66.3,124.9,66z M123.3,63.8c0,0.4,0.4,0.6,0.8,0.7
			c0.4-0.1,0.6-0.4,0.6-0.7c0-0.4-0.2-0.6-0.7-0.6C123.5,63.1,123.3,63.5,123.3,63.8z"/>
		<path d="M127.2,64.8c-0.6-0.2-0.7-0.6-0.7-1c0-0.7,0.6-1.2,1.6-1.2c1,0,1.5,0.6,1.5,1.1c0,0.4-0.3,0.7-0.8,1l0,0
			c0.6,0.2,1,0.6,1,1.1c0,0.7-0.7,1.3-1.7,1.3s-1.7-0.6-1.7-1.2C126.2,65.4,126.6,65.1,127.2,64.8L127.2,64.8z M128.7,66
			c0-0.5-0.4-0.7-0.9-0.9c-0.5,0.2-0.7,0.5-0.7,0.8c0,0.5,0.4,0.7,0.8,0.7C128.4,66.7,128.7,66.3,128.7,66z M127.2,63.8
			c0,0.4,0.4,0.6,0.8,0.7c0.4-0.1,0.6-0.4,0.6-0.7c0-0.4-0.2-0.6-0.7-0.6C127.4,63.1,127.2,63.5,127.2,63.8z"/>
		<path d="M133.2,67.2h-3.1v-0.4l0.6-0.5c1.1-0.9,1.7-1.6,1.7-2.2c0-0.5-0.3-0.8-0.9-0.8c-0.4,0-0.7,0.2-1,0.4l-0.3-0.5
			c0.3-0.2,0.8-0.4,1.4-0.4c1.1,0,1.6,0.6,1.6,1.3c0,0.8-0.6,1.5-1.6,2.2l-0.5,0.4l0,0h2.1V67.2L133.2,67.2z"/>
	</g>
</g>
</svg>
