<svg id="icon-date" xmlns="http://www.w3.org/2000/svg" xmlns:xlink="http://www.w3.org/1999/xlink" width="20" height="20" viewBox="0 0 20 20">
  <defs>
    <style>
      .cls-1, .cls-4 {
        fill: #9b8b54;
      }

      .cls-2 {
        fill: none;
      }

      .cls-3 {
        clip-path: url(#clip-path);
      }

      .cls-4 {
        fill-rule: evenodd;
      }
    </style>
    <clipPath id="clip-path">
      <rect id="Rectangle_7100" data-name="Rectangle 7100" class="cls-1" width="17.267" height="18.241"/>
    </clipPath>
  </defs>
  <rect id="Rectangle_7092" data-name="Rectangle 7092" class="cls-2" width="20" height="20"/>
  <g id="Group_884" data-name="Group 884" transform="translate(-409.634 -1269.119)">
    <g id="Group_808" data-name="Group 808" transform="translate(411 1269.999)">
      <g id="Group_807" data-name="Group 807" class="cls-3">
        <path id="Path_42707" data-name="Path 42707" class="cls-4" d="M1.678,5.3H15.643V16.347H1.678ZM2.046,0H2.91V1.218a.921.921,0,0,0-.636.9A1.1,1.1,0,0,0,3.36,3.135,1.2,1.2,0,0,0,4.547,2.117a.932.932,0,0,0-.663-.911V0H6.319V1.186a.91.91,0,0,0-.667.931,1.14,1.14,0,0,0,1.154,1,1.066,1.066,0,0,0,1.077-.985,1,1,0,0,0-.59-.942V0h2.3V1.271a.914.914,0,0,0-.579.846,1.069,1.069,0,0,0,1.12,1c.7-.017,1.111-.344,1.145-.9a.9.9,0,0,0-.712-.991V0h2.814V1.153a.874.874,0,0,0-.621.963,1.109,1.109,0,0,0,1.137,1,1.067,1.067,0,0,0,1.086-1c0-.495-.222-.9-.627-.923V0h.865a2.052,2.052,0,0,1,2.046,2.046V16.2a2.052,2.052,0,0,1-2.046,2.046H2.046A2.052,2.052,0,0,1,0,16.2V2.046A2.052,2.052,0,0,1,2.046,0"/>
      </g>
    </g>
  </g>
  <path id="Path_43301" data-name="Path 43301" class="cls-1" d="M3.791-.187H2.482V-5.224A4.494,4.494,0,0,1,.791-4.211V-5.423A3.766,3.766,0,0,0,1.9-6.072a2.463,2.463,0,0,0,.825-1.115H3.791Z" transform="translate(7.208 15.188)"/>
</svg>
