<svg id="icon-tour2" xmlns="http://www.w3.org/2000/svg" xmlns:xlink="http://www.w3.org/1999/xlink" width="20" height="20" viewBox="0 0 20 20">
  <defs>
    <style>
      .cls-1 {
        fill: #2f2f2f;
      }

      .cls-2 {
        fill: none;
      }

      .cls-3 {
        clip-path: url(#clip-path);
      }
    </style>
    <clipPath id="clip-path">
      <rect id="Rectangle_7152" data-name="Rectangle 7152" class="cls-1" width="14.189" height="20"/>
    </clipPath>
  </defs>
  <rect id="Rectangle_7153" data-name="Rectangle 7153" class="cls-2" width="20" height="20"/>
  <g id="Group_878" data-name="Group 878" transform="translate(3)">
    <g id="Group_878-2" data-name="Group 878" class="cls-3">
      <path id="Path_43183" data-name="Path 43183" class="cls-1" d="M12.965,11.842H9.724a.249.249,0,0,0-.232.263v7.632A.249.249,0,0,0,9.724,20h3.242a.249.249,0,0,0,.232-.263V12.105a.249.249,0,0,0-.232-.263M12.271,0H10.418a1,1,0,0,0-.926,1.053V2.105a.249.249,0,0,0,.232.263h3.242a.249.249,0,0,0,.232-.263V1.053A1,1,0,0,0,12.271,0" transform="translate(-5.096)"/>
      <path id="Path_43184" data-name="Path 43184" class="cls-1" d="M13.986,9.764,12.319,7.4a.891.891,0,0,0-.724-.4H.926A1,1,0,0,0,0,8.053v4.737a1,1,0,0,0,.926,1.053H11.595a.89.89,0,0,0,.724-.395l1.667-2.368a1.168,1.168,0,0,0,0-1.315" transform="translate(0 -3.316)"/>
    </g>
  </g>
</svg>
