<?xml version="1.0" encoding="utf-8"?>
<svg viewBox="0 0 53.737 56.768" xmlns="http://www.w3.org/2000/svg">
  <defs>
    <clipPath id="u2ua7hnvla">
      <path data-name="Rectangle 7100" style="fill:#9b8b54" d="M0 0h53.737v56.768H0z"/>
    </clipPath>
  </defs>
  <g data-name="Group 884">
    <g data-name="Group 808">
      <g data-name="Group 807" style="clip-path:url(#u2ua7hnvla)">
        <path data-name="Path 42707" d="M5.222 16.508h43.461v34.364H5.222zM6.367 0h2.689v3.789a2.868 2.868 0 0 0-1.98 2.8 3.409 3.409 0 0 0 3.38 3.17c1.954 0 3.7-1.68 3.7-3.17a2.9 2.9 0 0 0-2.062-2.834V0h7.578v3.69a2.832 2.832 0 0 0-2.075 2.9 3.546 3.546 0 0 0 3.585 3.11 3.319 3.319 0 0 0 3.352-3.06A3.107 3.107 0 0 0 22.7 3.71V0h7.157v3.956a2.846 2.846 0 0 0-1.8 2.632A3.327 3.327 0 0 0 31.539 9.7C33.7 9.652 35 8.634 35.1 6.9a2.789 2.789 0 0 0-2.216-3.083V0h8.758v3.59c-1.352.4-1.933 1.425-1.933 3A3.45 3.45 0 0 0 43.25 9.7a3.321 3.321 0 0 0 3.38-3.117c0-1.54-.692-2.807-1.952-2.874V0h2.692a6.385 6.385 0 0 1 6.367 6.366V50.4a6.385 6.385 0 0 1-6.367 6.366h-41A6.385 6.385 0 0 1 0 50.4V6.366A6.385 6.385 0 0 1 6.367 0" style="fill-rule:evenodd;fill:#9b8b54"/>
      </g>
    </g>
  </g>
</svg>