<svg id="icon-hotel" xmlns="http://www.w3.org/2000/svg" width="20" height="20" viewBox="0 0 20 20">
  <defs>
    <style>
      .cls-1 {
        fill: none;
      }

      .cls-2 {
        fill: #2f2f2f;
      }
    </style>
  </defs>
  <rect id="Rectangle_7153" data-name="Rectangle 7153" class="cls-1" width="20" height="20"/>
  <path id="Path_43188" data-name="Path 43188" class="cls-2" d="M2.291,14.154h1.49v1.928H2.291Zm4.419,0H9.275v3.8H6.709Zm3.809,0h2.566v3.8H10.518Zm5.494,0H17.5v1.928h-1.49ZM2.291,10.225h1.49v2.7H2.291Zm4.419,0H9.275v2.7H6.709Zm3.809,0h2.566v2.7H10.518Zm5.494,0H17.5v2.7h-1.49ZM6.709,6.3H9.275V9H6.709Zm3.809,0h2.566V9H10.518ZM4.377,4.34V5.413h1.06V17.957h-.8V7.259L.629,8.422V9.5h.807v8.462H0v1.35H19.793v-1.35H18.357V9.5h.807V8.422L15.158,7.259v10.7h-.8V5.413h1.06V4.34ZM5.646,1.719l-1.008.14.733.706-.178,1,.9-.479.9.479-.178-1,.733-.706-1.008-.14L6.091.8Zm7.612,0-1.008.14.733.706-.178,1,.9-.479.9.479-.178-1,.733-.706-1.008-.14L13.7.8ZM9.9,0,9.322,1.181l-1.3.181.947.912-.23,1.294L9.9,2.949l1.16.619-.23-1.294.947-.912-1.3-.181Z" transform="translate(0 0.026)"/>
</svg>
